<svg width="100" height="93" viewBox="0 0 120 93" fill="none" xmlns="http://www.w3.org/2000/svg">
<path d="M72.1972 74.658C70.054 74.658 68.3106 72.9136 68.3106 70.7714V65.682C68.3106 63.5393 70.054 61.7954 72.1972 61.7954H72.6858C73.1939 60.0855 73.8978 58.4248 74.7765 56.8724L74.3462 56.4427C73.6116 55.7075 73.2079 54.7313 73.2079 53.6937C73.2079 52.6682 73.6251 51.6641 74.3502 50.9429L77.9435 47.3472C78.6762 46.6155 79.6546 46.2086 80.6927 46.2086C81.7328 46.2086 82.711 46.6155 83.4447 47.3541L83.936 47.843C84.5547 47.5036 85.1935 47.1977 85.8435 46.916C82.81 46.0532 80.5816 43.2651 80.5816 39.9558C80.5816 35.9593 83.8257 32.7168 87.8241 32.7168C91.8218 32.7168 95.0638 35.9593 95.0638 39.9558C95.0638 40.3742 95.0212 40.7786 94.9535 41.1773H97.7705C99.9127 41.1773 101.655 42.9185 101.655 45.0634V45.8419C103.031 46.2377 104.371 46.7665 105.657 47.4024V0H0V79.9137H74.349L74.5822 79.6793C73.7155 78.0888 73.0311 76.3963 72.5503 74.6563H72.1972V74.658ZM20.6489 47.1948C16.6512 47.1948 13.4079 43.9537 13.4079 39.9545C13.4079 35.9583 16.6512 32.7155 20.6489 32.7155C24.6465 32.7155 27.8886 35.9583 27.8886 39.9545C27.8884 43.9551 24.6483 47.1948 20.6489 47.1948ZM27.6778 24.133C27.6197 23.9688 27.5342 23.8156 27.4027 23.6828L20.8316 17.1142C20.3602 16.6418 19.5963 16.6418 19.1254 17.1142C18.655 17.5859 18.655 18.3466 19.1254 18.817L24.4414 24.1328H10.9963C10.9963 15.3947 18.0794 8.31107 26.8178 8.31107C35.5549 8.31107 42.6395 15.3944 42.6395 24.1328H27.6778V24.133ZM54.2372 47.1948C50.2388 47.1948 46.9977 43.9537 46.9977 39.9545C46.9977 35.9583 50.2388 32.7155 54.2372 32.7155C58.2349 32.7155 61.4762 35.9583 61.4762 39.9545C61.4762 43.9551 58.2366 47.1948 54.2372 47.1948ZM80.4504 8.3128C89.1885 8.3128 96.2711 15.3959 96.2711 24.1343H81.6508L85.709 18.0597C86.0807 17.5078 85.9297 16.7578 85.3768 16.386C84.8217 16.0163 84.0727 16.165 83.7035 16.7194L78.7463 24.1343H64.6284C64.6284 15.3949 71.7122 8.3128 80.4504 8.3128ZM118.928 64.7447H115.958C115.4 61.7927 114.203 58.9895 112.454 56.5503L114.516 54.4884C114.717 54.2877 114.83 54.0156 114.83 53.7296C114.83 53.4454 114.717 53.173 114.516 52.9726L110.919 49.3758C110.501 48.9564 109.822 48.9564 109.403 49.3758L107.282 51.4998C104.861 49.8448 102.115 48.7195 99.245 48.2102V45.1939C99.245 44.6031 98.7645 44.1238 98.1744 44.1238H93.0847C92.4926 44.1238 92.0153 44.6043 92.0153 45.1939V48.2102C89.1198 48.722 86.353 49.8593 83.9188 51.536L81.8542 49.4714C81.437 49.051 80.7572 49.051 80.3378 49.4714L76.7411 53.0696C76.5406 53.2691 76.4271 53.5412 76.4271 53.8272C76.4271 54.1099 76.5406 54.3808 76.7411 54.5842L78.7658 56.607C77.0376 59.0356 75.8545 61.8159 75.3021 64.7429H72.5986C72.0083 64.7429 71.5283 65.2227 71.5283 65.8145V70.9017C71.5283 71.4948 72.008 71.9733 72.5986 71.9733H75.2102C75.7013 74.926 76.8408 77.7479 78.5429 80.2344L76.6453 82.132C76.2269 82.5524 76.2269 83.2289 76.6453 83.6464L80.2423 87.2475C80.443 87.447 80.7171 87.5603 81.0001 87.5603C81.2826 87.5603 81.5577 87.447 81.7589 87.2475L83.5952 85.4093C86.1021 87.2042 88.9804 88.4174 92.0151 88.9563V91.522C92.0151 92.1129 92.4949 92.5914 93.0845 92.5914H98.1741C98.7642 92.5914 99.2447 92.1111 99.2447 91.522V88.9563C102.252 88.4226 105.11 87.2232 107.608 85.447L109.5 87.3416C109.901 87.7433 110.614 87.7433 111.015 87.3416L114.613 83.7407C115.031 83.323 115.031 82.6465 114.613 82.229L112.678 80.2905C114.4 77.7895 115.554 74.9457 116.047 71.9731H118.928C119.521 71.9731 120 71.4933 120 70.9015V65.8143C120 65.2242 119.519 64.7447 118.928 64.7447ZM95.7653 79.6546C89.5269 79.6546 84.4707 74.596 84.4707 68.3613C84.4707 62.123 89.5269 57.068 95.7653 57.068C102 57.068 107.057 62.123 107.057 68.3613C107.057 74.596 102 79.6546 95.7653 79.6546ZM100.049 68.3613C100.049 70.7254 98.1283 72.6447 95.765 72.6447C93.3985 72.6447 91.4804 70.7254 91.4804 68.3613C91.4804 65.9948 93.4009 64.0757 95.765 64.0757C98.1286 64.0755 100.049 65.9945 100.049 68.3613Z" fill="white"/>
</svg>
