<svg width="46" height="46" viewBox="0 0 46 46" fill="none" xmlns="http://www.w3.org/2000/svg">
<path d="M40.5238 0H5.47619C2.45333 0 0 2.45333 0 5.47619V40.5238C0 43.5467 2.45333 46 5.47619 46H40.5238C43.5467 46 46 43.5467 46 40.5238V5.47619C46 2.45333 43.5467 0 40.5238 0ZM36.9314 31.7619L32.8462 31.751C32.8462 31.751 32.7586 31.7619 32.6162 31.7619C32.2876 31.7619 31.6086 31.6743 30.809 31.1267C29.3743 30.13 28.0052 27.6548 26.921 27.6548C26.8443 27.6548 26.7786 27.6657 26.7129 27.6876C25.771 27.9833 25.4862 28.9252 25.4862 30.0752C25.4862 30.4805 25.2014 30.6667 24.4348 30.6667H22.321C19.9552 30.6667 17.6662 30.6119 15.0924 27.7971C11.3029 23.6462 7.75429 16.2643 7.75429 16.2643C7.75429 16.2643 7.55714 15.8371 7.76524 15.5852C7.96238 15.3552 8.42238 15.3333 8.59762 15.3333C8.64143 15.3333 8.66333 15.3333 8.66333 15.3333H13.0443C13.0443 15.3333 13.4495 15.41 13.7452 15.629C13.9971 15.8152 14.1286 16.1548 14.1286 16.1548C14.1286 16.1548 14.8733 17.6005 15.8043 19.2324C17.3705 21.9267 18.2138 22.8248 18.8162 22.8248C18.9148 22.8248 19.0133 22.8029 19.1119 22.7481C20.01 22.2552 19.7471 18.2686 19.7471 18.2686C19.7471 18.2686 19.7581 16.8229 19.2871 16.1876C18.9257 15.6838 18.2357 15.5414 17.929 15.4976C17.6881 15.4648 18.0824 14.8952 18.6081 14.6324C19.2871 14.3038 20.4152 14.2381 21.7733 14.2381H22.4305C23.7119 14.26 23.7448 14.3914 24.2486 14.5119C25.76 14.8733 25.2452 16.2862 25.2452 19.6705C25.2452 20.7548 25.0481 22.2771 25.8257 22.7919C25.8805 22.8248 25.9571 22.8467 26.0557 22.8467C26.5595 22.8467 27.6438 22.2005 29.3743 19.2762C30.3381 17.6114 31.0829 15.9576 31.0829 15.9576C31.0829 15.9576 31.2471 15.6619 31.499 15.5086C31.74 15.3662 31.74 15.3662 32.0576 15.3662H32.0905C32.441 15.3662 35.9238 15.3333 36.6905 15.3333H36.7781C37.5119 15.3333 38.18 15.3443 38.3005 15.7933C38.4757 16.4724 37.7638 17.6881 35.891 20.2071C32.8024 24.3362 32.4519 24.0295 35.0148 26.4171C37.4681 28.6952 37.9719 29.8014 38.0595 29.9438C39.0781 31.6305 36.9314 31.7619 36.9314 31.7619Z" fill="white"/>
</svg>
